# xmcd
#
# Track frame offsets:
#	150
#	19095
#	36302
#	50535
#	63440
#	78802
#	92200
#	106955
#	118880
#	134392
#	169747
#
# Disc length: 2463 seconds
#
# Revision: 4
# Processed by: cddbd v1.5.2PL0 Copyright (c) Steve Scherf et al.
# Submitted via: EasyCDDAExtractor 10.2.0.1
#
DISCID=91099d0b
DTITLE=The Blues Brothers - The Blues Brothers - Original Soundtrack
DYEAR=1980
DGENRE=Blues
TTITLE0=She Caught The Katy
TTITLE1=Peter Gunn Theme
TTITLE2=Gimme Some Lovin'
TTITLE3=Shake Your Tailfeather
TTITLE4=Everybody Needs Somebody To Love
TTITLE5=The Old Landmark
TTITLE6=Think
TTITLE7=Theme From Rawhide
TTITLE8=Minnie The Moocher
TTITLE9=Sweet Home Chicago
TTITLE10=Jailhouse Rock
EXTD=
EXTT0=
EXTT1=
EXTT2=
EXTT3=
EXTT4=
EXTT5=
EXTT6=
EXTT7=
EXTT8=
EXTT9=
EXTT10=
PLAYORDER=
